<?xml version="1.0" standalone="no"?>
<!DOCTYPE svg PUBLIC "-//W3C//DTD SVG 20010904//EN"
 "http://www.w3.org/TR/2001/REC-SVG-20010904/DTD/svg10.dtd">
<svg version="1.0" xmlns="http://www.w3.org/2000/svg"
 width="544.000000pt" height="528.000000pt" viewBox="0 0 544.000000 528.000000"
 preserveAspectRatio="xMidYMid meet">

<g transform="translate(0.000000,528.000000) scale(0.100000,-0.100000)"
fill="#000000" stroke="none">
<path d="M0 2640 l0 -2640 2720 0 2720 0 0 2640 0 2640 -2720 0 -2720 0 0
-2640z m2772 2368 c22 -6 60 -30 85 -52 176 -155 89 -441 -143 -471 -107 -15
-223 48 -277 150 -31 57 -31 183 0 240 63 118 202 173 335 133z m-888 -332
c103 -43 100 -207 -4 -243 -25 -8 -146 -12 -407 -12 l-373 -1 0 -1740 0 -1740
386 1 c426 1 407 3 457 -63 24 -32 26 -108 3 -142 -37 -57 -23 -56 -532 -58
-458 -3 -470 -3 -504 18 -19 11 -45 38 -57 60 l-23 39 0 1888 c0 1886 0 1888
21 1928 14 29 32 46 62 60 39 17 71 19 490 19 359 0 454 -3 481 -14z m2561 3
c45 -12 79 -40 103 -84 16 -28 17 -177 20 -1835 1 -996 -2 -1849 -6 -1904 -9
-93 -11 -100 -43 -132 -52 -52 -90 -55 -581 -52 -406 3 -435 4 -461 22 -38 26
-57 66 -57 121 0 38 6 52 34 83 l34 37 403 5 402 5 1 1738 1 1737 -383 0
c-424 0 -435 1 -472 62 -43 71 -18 162 54 194 40 17 888 20 951 3z m-505 -714
l0 -135 -1125 0 -1125 0 0 -129 c0 -289 45 -425 191 -570 81 -81 183 -140 321
-185 102 -34 336 -86 384 -86 l24 0 0 -315 0 -316 -37 6 c-21 4 -84 16 -140
27 l-103 21 0 107 0 107 -107 18 c-203 33 -375 91 -486 165 -125 84 -184 149
-237 262 -57 121 -60 156 -60 681 l0 477 1250 0 1250 0 0 -135z m-1361 -461
l31 -6 0 -148 0 -148 -72 14 c-213 41 -329 107 -379 217 -36 81 -45 77 185 77
112 0 218 -3 235 -6z m1336 0 l25 -6 0 -284 0 -284 -82 31 c-134 51 -298 99
-375 112 l-73 12 0 96 0 97 -187 -2 c-104 -2 -194 -1 -200 1 -9 4 -13 37 -13
118 l0 113 440 1 c242 1 451 -1 465 -5z m-720 -745 c374 -46 638 -233 731
-519 16 -49 18 -107 22 -512 l3 -458 -470 0 -471 0 0 135 0 135 340 0 340 0 0
168 c0 198 -12 260 -72 376 -76 145 -224 269 -380 317 -33 11 -98 22 -144 25
l-84 7 0 168 0 169 48 0 c26 0 88 -5 137 -11z m-1604 -573 c62 -29 165 -71
227 -92 l112 -38 0 -93 0 -93 -120 0 -120 0 0 -165 0 -165 320 0 320 0 0 190
c0 105 4 190 9 190 5 0 51 -8 102 -19 52 -10 111 -22 132 -25 l37 -7 0 -439 0
-440 -140 0 -140 0 0 140 0 140 -445 0 -445 0 0 502 c0 482 1 500 18 485 10
-9 70 -41 133 -71z m1367 -1594 c-6 -103 -28 -160 -83 -214 -64 -63 -148 -90
-236 -77 -154 23 -239 141 -239 330 l0 49 281 0 282 0 -5 -88z"/>
</g>
</svg>
